<mxfile host="app.diagrams.net" modified="2020-11-21T15:24:29.258Z" agent="5.0 (Macintosh; Intel Mac OS X 10_14_6) AppleWebKit/537.36 (KHTML, like Gecko) Chrome/86.0.4240.198 Safari/537.36" etag="TvcbdqbM0VAy6cQXYQTh" version="13.10.0" type="github">
  <diagram id="l8HAb5ZpfE-K3qL3GmzX" name="Page-1">
    <mxGraphModel dx="1426" dy="783" grid="1" gridSize="10" guides="1" tooltips="1" connect="1" arrows="1" fold="1" page="1" pageScale="1" pageWidth="850" pageHeight="1100" math="0" shadow="0">
      <root>
        <mxCell id="0" />
        <mxCell id="1" parent="0" />
        <mxCell id="YVwRgUmtyMi5_FWcy6iZ-1" value="h1" style="ellipse;whiteSpace=wrap;html=1;aspect=fixed;" parent="1" vertex="1">
          <mxGeometry x="402" y="140" width="40" height="40" as="geometry" />
        </mxCell>
        <mxCell id="YVwRgUmtyMi5_FWcy6iZ-2" value="h3" style="ellipse;whiteSpace=wrap;html=1;aspect=fixed;" parent="1" vertex="1">
          <mxGeometry x="402" y="280" width="40" height="40" as="geometry" />
        </mxCell>
        <mxCell id="YVwRgUmtyMi5_FWcy6iZ-4" value="h4" style="ellipse;whiteSpace=wrap;html=1;aspect=fixed;" parent="1" vertex="1">
          <mxGeometry x="401" y="350" width="40" height="40" as="geometry" />
        </mxCell>
        <mxCell id="YVwRgUmtyMi5_FWcy6iZ-5" value="h2" style="ellipse;whiteSpace=wrap;html=1;aspect=fixed;" parent="1" vertex="1">
          <mxGeometry x="402" y="210" width="40" height="40" as="geometry" />
        </mxCell>
        <mxCell id="YVwRgUmtyMi5_FWcy6iZ-6" value="o1" style="ellipse;whiteSpace=wrap;html=1;aspect=fixed;" parent="1" vertex="1">
          <mxGeometry x="590" y="250" width="40" height="40" as="geometry" />
        </mxCell>
        <mxCell id="YVwRgUmtyMi5_FWcy6iZ-7" value="x1" style="ellipse;whiteSpace=wrap;html=1;aspect=fixed;" parent="1" vertex="1">
          <mxGeometry x="230" y="140" width="40" height="40" as="geometry" />
        </mxCell>
        <mxCell id="YVwRgUmtyMi5_FWcy6iZ-8" value="x3" style="ellipse;whiteSpace=wrap;html=1;aspect=fixed;" parent="1" vertex="1">
          <mxGeometry x="230" y="280" width="40" height="40" as="geometry" />
        </mxCell>
        <mxCell id="YVwRgUmtyMi5_FWcy6iZ-9" value="x4" style="ellipse;whiteSpace=wrap;html=1;aspect=fixed;" parent="1" vertex="1">
          <mxGeometry x="230" y="350" width="40" height="40" as="geometry" />
        </mxCell>
        <mxCell id="YVwRgUmtyMi5_FWcy6iZ-10" value="x2" style="ellipse;whiteSpace=wrap;html=1;aspect=fixed;" parent="1" vertex="1">
          <mxGeometry x="230" y="210" width="40" height="40" as="geometry" />
        </mxCell>
        <mxCell id="YVwRgUmtyMi5_FWcy6iZ-11" value="" style="endArrow=none;html=1;entryX=0;entryY=0.5;entryDx=0;entryDy=0;exitX=1;exitY=0.5;exitDx=0;exitDy=0;" parent="1" source="YVwRgUmtyMi5_FWcy6iZ-1" target="YVwRgUmtyMi5_FWcy6iZ-6" edge="1">
          <mxGeometry width="50" height="50" relative="1" as="geometry">
            <mxPoint x="400" y="430" as="sourcePoint" />
            <mxPoint x="450" y="380" as="targetPoint" />
          </mxGeometry>
        </mxCell>
        <mxCell id="YVwRgUmtyMi5_FWcy6iZ-12" value="" style="endArrow=none;html=1;entryX=0;entryY=0.5;entryDx=0;entryDy=0;exitX=1;exitY=0.5;exitDx=0;exitDy=0;" parent="1" source="YVwRgUmtyMi5_FWcy6iZ-5" target="YVwRgUmtyMi5_FWcy6iZ-6" edge="1">
          <mxGeometry width="50" height="50" relative="1" as="geometry">
            <mxPoint x="452" y="185" as="sourcePoint" />
            <mxPoint x="605.8578643762689" y="280.85786437626894" as="targetPoint" />
          </mxGeometry>
        </mxCell>
        <mxCell id="YVwRgUmtyMi5_FWcy6iZ-13" value="" style="endArrow=none;html=1;entryX=0;entryY=0.5;entryDx=0;entryDy=0;exitX=1;exitY=0.5;exitDx=0;exitDy=0;" parent="1" source="YVwRgUmtyMi5_FWcy6iZ-2" target="YVwRgUmtyMi5_FWcy6iZ-6" edge="1">
          <mxGeometry width="50" height="50" relative="1" as="geometry">
            <mxPoint x="452" y="240" as="sourcePoint" />
            <mxPoint x="600" y="280" as="targetPoint" />
          </mxGeometry>
        </mxCell>
        <mxCell id="YVwRgUmtyMi5_FWcy6iZ-14" value="" style="endArrow=none;html=1;entryX=0;entryY=0.5;entryDx=0;entryDy=0;exitX=1;exitY=0.5;exitDx=0;exitDy=0;" parent="1" source="YVwRgUmtyMi5_FWcy6iZ-4" target="YVwRgUmtyMi5_FWcy6iZ-6" edge="1">
          <mxGeometry width="50" height="50" relative="1" as="geometry">
            <mxPoint x="452" y="310" as="sourcePoint" />
            <mxPoint x="600" y="280" as="targetPoint" />
          </mxGeometry>
        </mxCell>
        <mxCell id="EzJesX8D6r8cH8Coe2rC-2" value="&lt;div&gt;&lt;font color=&quot;#ff0000&quot;&gt;&lt;font style=&quot;font-size: 18px&quot;&gt;Bank Notes&lt;/font&gt;&lt;span style=&quot;font-size: 14px&quot;&gt;&amp;nbsp;&lt;/span&gt;&lt;/font&gt;&lt;/div&gt;&lt;font&gt;&lt;div style=&quot;font-size: 14px ; text-align: left&quot;&gt;&lt;span&gt;(Binary Classification)&lt;/span&gt;&lt;/div&gt;&lt;div style=&quot;font-size: 14px ; text-align: left&quot;&gt;&lt;span&gt;4 Inputs &amp;amp; 1 output&lt;/span&gt;&lt;/div&gt;&lt;div style=&quot;text-align: left&quot;&gt;&lt;span style=&quot;font-size: 14px&quot;&gt;Assumption&amp;nbsp;&lt;/span&gt;&lt;span style=&quot;font-size: 14px&quot;&gt;: 4 hidden layers&lt;/span&gt;&lt;/div&gt;&lt;/font&gt;" style="text;html=1;align=center;verticalAlign=middle;resizable=0;points=[];autosize=1;" vertex="1" parent="1">
          <mxGeometry x="90" y="40" width="200" height="60" as="geometry" />
        </mxCell>
        <mxCell id="EzJesX8D6r8cH8Coe2rC-3" value="" style="endArrow=none;html=1;exitX=1;exitY=0.5;exitDx=0;exitDy=0;" edge="1" parent="1" source="YVwRgUmtyMi5_FWcy6iZ-7">
          <mxGeometry width="50" height="50" relative="1" as="geometry">
            <mxPoint x="400" y="420" as="sourcePoint" />
            <mxPoint x="400" y="230" as="targetPoint" />
          </mxGeometry>
        </mxCell>
        <mxCell id="EzJesX8D6r8cH8Coe2rC-5" value="" style="endArrow=none;html=1;exitX=1;exitY=0.5;exitDx=0;exitDy=0;" edge="1" parent="1" source="YVwRgUmtyMi5_FWcy6iZ-7" target="YVwRgUmtyMi5_FWcy6iZ-1">
          <mxGeometry width="50" height="50" relative="1" as="geometry">
            <mxPoint x="400" y="420" as="sourcePoint" />
            <mxPoint x="400" y="160" as="targetPoint" />
          </mxGeometry>
        </mxCell>
        <mxCell id="EzJesX8D6r8cH8Coe2rC-6" value="" style="endArrow=none;html=1;exitX=1;exitY=0.5;exitDx=0;exitDy=0;entryX=0;entryY=0.5;entryDx=0;entryDy=0;" edge="1" parent="1" source="YVwRgUmtyMi5_FWcy6iZ-7" target="YVwRgUmtyMi5_FWcy6iZ-2">
          <mxGeometry width="50" height="50" relative="1" as="geometry">
            <mxPoint x="280" y="170" as="sourcePoint" />
            <mxPoint x="400" y="300" as="targetPoint" />
          </mxGeometry>
        </mxCell>
        <mxCell id="EzJesX8D6r8cH8Coe2rC-7" value="" style="endArrow=none;html=1;exitX=1;exitY=0.5;exitDx=0;exitDy=0;entryX=0;entryY=0.5;entryDx=0;entryDy=0;" edge="1" parent="1" source="YVwRgUmtyMi5_FWcy6iZ-7" target="YVwRgUmtyMi5_FWcy6iZ-4">
          <mxGeometry width="50" height="50" relative="1" as="geometry">
            <mxPoint x="280" y="170" as="sourcePoint" />
            <mxPoint x="412" y="310" as="targetPoint" />
          </mxGeometry>
        </mxCell>
        <mxCell id="EzJesX8D6r8cH8Coe2rC-8" value="" style="endArrow=none;html=1;exitX=1;exitY=0.5;exitDx=0;exitDy=0;" edge="1" parent="1" source="YVwRgUmtyMi5_FWcy6iZ-10">
          <mxGeometry width="50" height="50" relative="1" as="geometry">
            <mxPoint x="280" y="170" as="sourcePoint" />
            <mxPoint x="400" y="230" as="targetPoint" />
          </mxGeometry>
        </mxCell>
        <mxCell id="EzJesX8D6r8cH8Coe2rC-9" value="" style="endArrow=none;html=1;entryX=0;entryY=0.5;entryDx=0;entryDy=0;" edge="1" parent="1" target="YVwRgUmtyMi5_FWcy6iZ-1">
          <mxGeometry width="50" height="50" relative="1" as="geometry">
            <mxPoint x="270" y="230" as="sourcePoint" />
            <mxPoint x="400" y="160" as="targetPoint" />
          </mxGeometry>
        </mxCell>
        <mxCell id="EzJesX8D6r8cH8Coe2rC-10" value="" style="endArrow=none;html=1;entryX=0;entryY=0.5;entryDx=0;entryDy=0;" edge="1" parent="1" target="YVwRgUmtyMi5_FWcy6iZ-2">
          <mxGeometry width="50" height="50" relative="1" as="geometry">
            <mxPoint x="270" y="230" as="sourcePoint" />
            <mxPoint x="412" y="310" as="targetPoint" />
          </mxGeometry>
        </mxCell>
        <mxCell id="EzJesX8D6r8cH8Coe2rC-11" value="" style="endArrow=none;html=1;exitX=1;exitY=0.5;exitDx=0;exitDy=0;entryX=0;entryY=0.5;entryDx=0;entryDy=0;" edge="1" parent="1" source="YVwRgUmtyMi5_FWcy6iZ-10" target="YVwRgUmtyMi5_FWcy6iZ-4">
          <mxGeometry width="50" height="50" relative="1" as="geometry">
            <mxPoint x="280" y="170" as="sourcePoint" />
            <mxPoint x="400" y="370" as="targetPoint" />
          </mxGeometry>
        </mxCell>
        <mxCell id="EzJesX8D6r8cH8Coe2rC-12" value="" style="endArrow=none;html=1;exitX=1;exitY=0.5;exitDx=0;exitDy=0;" edge="1" parent="1" source="YVwRgUmtyMi5_FWcy6iZ-8">
          <mxGeometry width="50" height="50" relative="1" as="geometry">
            <mxPoint x="280" y="240" as="sourcePoint" />
            <mxPoint x="400" y="230" as="targetPoint" />
          </mxGeometry>
        </mxCell>
        <mxCell id="EzJesX8D6r8cH8Coe2rC-13" value="" style="endArrow=none;html=1;exitX=1;exitY=0.5;exitDx=0;exitDy=0;entryX=0;entryY=0.5;entryDx=0;entryDy=0;" edge="1" parent="1" source="YVwRgUmtyMi5_FWcy6iZ-8" target="YVwRgUmtyMi5_FWcy6iZ-1">
          <mxGeometry width="50" height="50" relative="1" as="geometry">
            <mxPoint x="280" y="240" as="sourcePoint" />
            <mxPoint x="400" y="160" as="targetPoint" />
          </mxGeometry>
        </mxCell>
        <mxCell id="EzJesX8D6r8cH8Coe2rC-14" value="" style="endArrow=none;html=1;exitX=1;exitY=0.5;exitDx=0;exitDy=0;" edge="1" parent="1" source="YVwRgUmtyMi5_FWcy6iZ-8">
          <mxGeometry width="50" height="50" relative="1" as="geometry">
            <mxPoint x="280" y="240" as="sourcePoint" />
            <mxPoint x="400" y="300" as="targetPoint" />
          </mxGeometry>
        </mxCell>
        <mxCell id="EzJesX8D6r8cH8Coe2rC-15" value="" style="endArrow=none;html=1;exitX=1;exitY=0.5;exitDx=0;exitDy=0;" edge="1" parent="1" source="YVwRgUmtyMi5_FWcy6iZ-8">
          <mxGeometry width="50" height="50" relative="1" as="geometry">
            <mxPoint x="280" y="240" as="sourcePoint" />
            <mxPoint x="400" y="370" as="targetPoint" />
          </mxGeometry>
        </mxCell>
        <mxCell id="EzJesX8D6r8cH8Coe2rC-16" value="" style="endArrow=none;html=1;entryX=0;entryY=0.5;entryDx=0;entryDy=0;" edge="1" parent="1" target="YVwRgUmtyMi5_FWcy6iZ-5">
          <mxGeometry width="50" height="50" relative="1" as="geometry">
            <mxPoint x="270" y="370" as="sourcePoint" />
            <mxPoint x="410" y="240" as="targetPoint" />
          </mxGeometry>
        </mxCell>
        <mxCell id="EzJesX8D6r8cH8Coe2rC-17" value="" style="endArrow=none;html=1;entryX=0;entryY=0.5;entryDx=0;entryDy=0;" edge="1" parent="1" target="YVwRgUmtyMi5_FWcy6iZ-1">
          <mxGeometry width="50" height="50" relative="1" as="geometry">
            <mxPoint x="273" y="370" as="sourcePoint" />
            <mxPoint x="410" y="170" as="targetPoint" />
          </mxGeometry>
        </mxCell>
        <mxCell id="EzJesX8D6r8cH8Coe2rC-18" value="" style="endArrow=none;html=1;exitX=1;exitY=0.5;exitDx=0;exitDy=0;entryX=0;entryY=0.5;entryDx=0;entryDy=0;" edge="1" parent="1" source="YVwRgUmtyMi5_FWcy6iZ-9" target="YVwRgUmtyMi5_FWcy6iZ-2">
          <mxGeometry width="50" height="50" relative="1" as="geometry">
            <mxPoint x="280" y="310" as="sourcePoint" />
            <mxPoint x="410" y="310" as="targetPoint" />
          </mxGeometry>
        </mxCell>
        <mxCell id="EzJesX8D6r8cH8Coe2rC-19" value="" style="endArrow=none;html=1;exitX=1;exitY=0.5;exitDx=0;exitDy=0;entryX=0;entryY=0.5;entryDx=0;entryDy=0;" edge="1" parent="1" source="YVwRgUmtyMi5_FWcy6iZ-9" target="YVwRgUmtyMi5_FWcy6iZ-4">
          <mxGeometry width="50" height="50" relative="1" as="geometry">
            <mxPoint x="280" y="310" as="sourcePoint" />
            <mxPoint x="410" y="380" as="targetPoint" />
          </mxGeometry>
        </mxCell>
        <mxCell id="EzJesX8D6r8cH8Coe2rC-20" value="" style="shape=flexArrow;endArrow=classic;html=1;exitX=1;exitY=0.5;exitDx=0;exitDy=0;" edge="1" parent="1" source="YVwRgUmtyMi5_FWcy6iZ-6">
          <mxGeometry width="50" height="50" relative="1" as="geometry">
            <mxPoint x="400" y="420" as="sourcePoint" />
            <mxPoint x="680" y="270" as="targetPoint" />
          </mxGeometry>
        </mxCell>
      </root>
    </mxGraphModel>
  </diagram>
</mxfile>
